<svg aria-hidden="true" style="position: absolute; width: 0; height: 0; overflow: hidden;" version="1.1" xmlns="http://www.w3.org/2000/svg" xmlns:xlink="http://www.w3.org/1999/xlink">
<defs>
<symbol id="chad-logo" viewBox="0 0 32 32">
<path fill="#32abf2" style="fill: var(--color1, #32abf2)" d="M13.114 20.064c-0.96 0.268-1.686 0.945-2.045 1.399-0.152 0.195-0.219 0.514-0.337 0.732-0.052 0.095-0.751 1.445-1.379 1.849-0.694 0.441-1.321 0.537-1.657 1.23-0.135 0.277-0.192 0.581-0.149 0.872 0.063 0.445 0.354 0.865 0.952 1.125 0.994 0.434 4.556 0.037 6.542-2.417 0.575-0.596 0.83-1.443 0.934-2.22 0.215-1.621-1.284-3.009-2.861-2.57z"></path>
<path fill="#32abf2" style="fill: var(--color1, #32abf2)" d="M10.761 20.096c0.029-0.044 0.058-0.086 0.088-0.139 0.046-0.081 0.094-0.172 0.144-0.27-0.724-0.461-1.767-1.282-1.813-1.318l-0.073-0.057 0.003-0.004c-0.068-0.055-0.136-0.106-0.205-0.165-0.153 0.037-0.299 0.080-0.437 0.132-0.863 0.323-1.443 0.903-1.855 1.346-0.138 0.148-0.256 0.28-0.364 0.385-0.591 0.571-1.24 0.895-1.519 1.019-0.057 0.036-0.115 0.072-0.174 0.108-1.031 0.63-0.977 1.632-0.863 2.017s0.547 1.421 2.003 1.395c1.127-0.020 2.354-0.619 2.851-0.889 0 0 2.1-1.348 2.882-2.964 0.001-0-0.265-0.232-0.668-0.596z"></path>
<path fill="#32abf2" style="fill: var(--color1, #32abf2)" d="M7.598 16.527c-0.266-0.36-0.502-0.712-0.671-0.979-0.068-0.108-0.125-0.201-0.171-0.277-0.2 0.053-0.449 0.137-0.721 0.276-0.654 0.335-1.323 0.517-1.721 0.364s-1.271-0.546-1.892-0.102-0.822 1.257-0.478 1.858c0.295 0.517 1.060 1.332 1.924 1.663 0 0 1.984 0.95 4.266-1.029 1.966-1.704 0.332-1.793-0.535-1.774z"></path>
<path fill="#32abf2" style="fill: var(--color1, #32abf2)" d="M15.985 23.129c5.283 0 9.566-4.283 9.566-9.566s-4.283-9.566-9.566-9.566c-5.283 0-9.566 4.283-9.566 9.566s4.283 9.566 9.566 9.566z"></path>
<path fill="#32abf2" style="fill: var(--color1, #32abf2)" d="M18.856 20.064c0.96 0.268 1.686 0.945 2.045 1.399 0.152 0.195 0.219 0.514 0.337 0.732 0.052 0.095 0.751 1.445 1.379 1.849 0.694 0.441 1.321 0.537 1.657 1.23 0.135 0.277 0.192 0.581 0.149 0.872-0.063 0.445-0.354 0.865-0.952 1.125-0.994 0.434-4.556 0.037-6.542-2.417-0.575-0.596-0.83-1.443-0.933-2.22-0.214-1.621 1.284-3.009 2.861-2.57z"></path>
<path fill="#32abf2" style="fill: var(--color1, #32abf2)" d="M21.209 20.096c-0.029-0.044-0.058-0.086-0.088-0.139-0.046-0.081-0.094-0.172-0.144-0.27 0.724-0.461 1.767-1.282 1.813-1.318l0.073-0.057-0.003-0.004c0.068-0.055 0.136-0.106 0.204-0.165 0.153 0.037 0.299 0.080 0.437 0.132 0.863 0.323 1.443 0.903 1.855 1.346 0.138 0.148 0.256 0.28 0.364 0.385 0.591 0.571 1.24 0.895 1.519 1.019 0.057 0.036 0.115 0.072 0.174 0.108 1.031 0.63 0.977 1.632 0.863 2.017s-0.547 1.421-2.003 1.395c-1.127-0.020-2.354-0.619-2.851-0.889 0 0-2.101-1.348-2.883-2.964-0-0 0.267-0.232 0.669-0.596z"></path>
<path fill="#32abf2" style="fill: var(--color1, #32abf2)" d="M24.373 16.527c0.267-0.36 0.502-0.712 0.671-0.979 0.068-0.108 0.125-0.201 0.171-0.277 0.2 0.053 0.449 0.137 0.721 0.276 0.654 0.335 1.323 0.517 1.721 0.364s1.271-0.546 1.892-0.102c0.621 0.444 0.822 1.257 0.478 1.858-0.295 0.517-1.060 1.332-1.924 1.663 0 0-1.984 0.95-4.266-1.029-1.966-1.704-0.332-1.793 0.535-1.774z"></path>
<path fill="#34056f" style="fill: var(--color2, #34056f)" d="M12.688 14.185c0.465 0 0.842-0.48 0.842-1.072s-0.377-1.072-0.842-1.072c-0.465 0-0.842 0.48-0.842 1.072s0.377 1.072 0.842 1.072z"></path>
<path fill="#f9f9f9" style="fill: var(--color3, #f9f9f9)" d="M13.024 12.656c0 0.21-0.171 0.381-0.381 0.381s-0.381-0.171-0.381-0.381c0-0.21 0.171-0.381 0.381-0.381s0.381 0.17 0.381 0.381z"></path>
<path fill="#34056f" style="fill: var(--color2, #34056f)" d="M19.282 14.185c0.465 0 0.842-0.48 0.842-1.072s-0.377-1.072-0.842-1.072c-0.465 0-0.842 0.48-0.842 1.072s0.377 1.072 0.842 1.072z"></path>
<path fill="#f9f9f9" style="fill: var(--color3, #f9f9f9)" d="M19.619 12.656c0 0.21-0.171 0.381-0.381 0.381s-0.381-0.171-0.381-0.381c0-0.21 0.171-0.381 0.381-0.381s0.381 0.17 0.381 0.381z"></path>
<path fill="#eb5a55" style="fill: var(--color4, #eb5a55)" d="M17.534 16.41c-0.080 0.966-0.405 2.198-1.548 2.198-0.564 0-0.929-0.3-1.162-0.72 0.284-0.608 1.036-1.69 2.71-1.478z"></path>
<path fill="#79292a" style="fill: var(--color5, #79292a)" d="M17.533 16.411c-1.675-0.212-2.427 0.87-2.71 1.478-0.549-0.981-0.387-2.617-0.387-2.617 0.462 0.198 1.549 0.158 1.549 0.158s1.086 0.040 1.549-0.158c0 0 0.051 0.515-0.001 1.139z"></path>
</symbol>
<symbol id="icon_check" viewBox="0 0 32 32">
<path stroke-width="2.5833" stroke-miterlimit="4" stroke-linecap="round" stroke-linejoin="round" d="M26.667 8l-14.667 14.667-6.667-6.667"></path>
</symbol>
<symbol id="icon_chevron-down---Copy" viewBox="0 0 30 32">
<path stroke-width="2.5098" stroke-miterlimit="4" stroke-linecap="round" stroke-linejoin="round" d="M7.529 12.235l7.529 7.529 7.529-7.529"></path>
</symbol>
<symbol id="icon_chevron-left" viewBox="0 0 32 32">
<path stroke-width="2.6667" stroke-miterlimit="4" stroke-linecap="round" stroke-linejoin="round" d="M20 24l-8-8 8-8"></path>
</symbol>
<symbol id="icon_chevron-right" viewBox="0 0 32 32">
<path stroke-width="2.6667" stroke-miterlimit="4" stroke-linecap="round" stroke-linejoin="round" d="M12 24l8-8-8-8"></path>
</symbol>
<symbol id="icon_eye" viewBox="0 0 30 32">
<path stroke-width="2.5035" stroke-miterlimit="4" stroke-linecap="round" stroke-linejoin="round" d="M1.255 16c0 0 5.020-10.039 13.804-10.039s13.804 10.039 13.804 10.039c0 0-5.020 10.039-13.804 10.039s-13.804-10.039-13.804-10.039z"></path>
<path stroke-width="2.5035" stroke-miterlimit="4" stroke-linecap="round" stroke-linejoin="round" d="M15.059 19.765c2.079 0 3.765-1.686 3.765-3.765s-1.686-3.765-3.765-3.765c-2.079 0-3.765 1.685-3.765 3.765s1.685 3.765 3.765 3.765z"></path>
</symbol>
<symbol id="icon_eye-off" viewBox="0 0 30 32">
<path stroke-width="2.5035" stroke-miterlimit="4" stroke-linecap="round" stroke-linejoin="round" d="M12.423 6.262c0.864-0.202 1.748-0.303 2.635-0.301 8.784 0 13.804 10.039 13.804 10.039-0.762 1.425-1.67 2.767-2.711 4.003M17.719 18.66c-0.345 0.37-0.76 0.667-1.222 0.872s-0.96 0.316-1.466 0.325c-0.505 0.009-1.008-0.084-1.476-0.273s-0.895-0.471-1.252-0.829c-0.357-0.358-0.639-0.783-0.829-1.252s-0.282-0.971-0.273-1.476c0.009-0.505 0.12-1.004 0.325-1.466s0.502-0.877 0.872-1.222M22.513 23.454c-2.145 1.635-4.757 2.541-7.454 2.585-8.784 0-13.804-10.039-13.804-10.039 1.561-2.909 3.726-5.451 6.35-7.454l14.908 14.908z"></path>
<path stroke-width="2.5035" stroke-miterlimit="4" stroke-linecap="round" stroke-linejoin="round" d="M1.255 2.196l27.608 27.608"></path>
</symbol>
<symbol id="icon-google" viewBox="0 0 32 32">
<path fill="#fff" style="fill: var(--color1, #fff)" d="M0.667 0h30.667c0.368 0 0.667 0.298 0.667 0.667v30.667c0 0.368-0.298 0.667-0.667 0.667h-30.667c-0.368 0-0.667-0.298-0.667-0.667v-30.667c0-0.368 0.298-0.667 0.667-0.667z"></path>
<path fill="#4285f4" style="fill: var(--color2, #4285f4)" d="M21.216 16.138c0-0.408-0.033-0.818-0.104-1.219h-5.659v2.311h3.241c-0.134 0.745-0.567 1.404-1.199 1.823v1.499h1.934c1.135-1.045 1.788-2.588 1.788-4.414z"></path>
<path fill="#34a853" style="fill: var(--color3, #34a853)" d="M15.453 22c1.618 0 2.983-0.531 3.977-1.448l-1.933-1.499c-0.538 0.366-1.232 0.573-2.042 0.573-1.565 0-2.893-1.056-3.369-2.476h-1.995v1.545c1.019 2.026 3.093 3.305 5.362 3.305z"></path>
<path fill="#fbbc04" style="fill: var(--color4, #fbbc04)" d="M12.085 17.15c-0.251-0.745-0.251-1.552 0-2.297v-1.545h-1.993c-0.851 1.695-0.851 3.693 0 5.388l1.993-1.545z"></path>
<path fill="#ea4335" style="fill: var(--color5, #ea4335)" d="M15.453 12.375c0.855-0.013 1.682 0.309 2.302 0.9l1.713-1.713c-1.085-1.019-2.524-1.579-4.015-1.561-2.269 0-4.343 1.279-5.362 3.307l1.993 1.545c0.474-1.422 1.803-2.478 3.369-2.478z"></path>
</symbol>
</defs>
</svg>



